<?xml version="1.0" standalone="no"?>
<!DOCTYPE svg PUBLIC "-//W3C//DTD SVG 20010904//EN"
 "http://www.w3.org/TR/2001/REC-SVG-20010904/DTD/svg10.dtd">
<svg version="1.0" xmlns="http://www.w3.org/2000/svg"
 width="700.000000pt" height="700.000000pt" viewBox="0 0 700.000000 700.000000"
 preserveAspectRatio="xMidYMid meet">
<metadata>
Created by potrace 1.11, written by Peter Selinger 2001-2013
</metadata>
<g transform="translate(0.000000,700.000000) scale(0.100000,-0.100000)"
fill="#000000" stroke="none">
<path d="M5475 6981 c-42 -26 -62 -50 -72 -91 -5 -19 -9 -175 -8 -345 1 -306
1 -311 24 -348 55 -89 173 -95 238 -11 l28 37 3 321 c3 373 0 389 -71 430 -52
29 -103 32 -142 7z"/>
<path d="M4651 6638 c-67 -33 -97 -113 -68 -181 15 -35 441 -463 482 -484 85
-45 191 10 208 107 11 62 -15 97 -250 332 -264 265 -278 273 -372 226z"/>
<path d="M6305 6641 c-44 -21 -455 -430 -480 -477 -44 -84 17 -198 112 -209
65 -7 89 11 324 246 126 127 234 241 239 255 48 125 -76 242 -195 185z"/>
<path d="M3150 6244 c-172 -44 -285 -107 -409 -227 -141 -137 -239 -343 -256
-537 -3 -30 -5 -127 -6 -215 l0 -160 -227 -1 c-125 0 -238 -3 -252 -7 -31 -8
-72 -44 -90 -77 -10 -19 -14 -83 -14 -248 l-1 -224 -85 -32 c-513 -193 -933
-552 -1211 -1033 -351 -608 -403 -1379 -135 -2026 220 -532 607 -950 1116
-1208 104 -52 303 -132 390 -156 82 -22 172 -44 200 -49 50 -8 86 -14 125 -19
22 -3 51 -8 65 -11 14 -3 113 -7 220 -9 189 -3 296 4 410 24 30 6 70 13 87 16
127 21 354 92 487 153 500 227 882 588 1132 1067 99 188 188 441 220 625 4 25
8 47 9 50 1 3 5 32 9 65 4 32 10 68 13 80 13 59 8 399 -8 528 -93 738 -516
1373 -1166 1748 -46 27 -86 49 -88 49 -2 0 -41 18 -87 40 -46 21 -119 52 -163
68 l-80 30 -1 224 c-1 252 -5 272 -74 312 -31 18 -53 20 -272 20 l-239 0 2
181 c2 275 38 384 174 520 109 109 228 162 380 170 326 17 592 -229 611 -565
3 -52 7 -104 9 -115 16 -90 33 -143 73 -225 39 -80 60 -109 136 -186 77 -76
105 -97 186 -136 114 -55 203 -78 307 -79 148 -1 267 29 383 97 216 127 345
336 364 594 5 58 12 93 25 110 27 38 80 70 114 70 119 0 194 137 127 231 -43
60 -116 74 -231 44 -187 -49 -308 -203 -324 -415 -10 -132 -46 -220 -123 -302
-82 -88 -171 -128 -299 -134 -158 -7 -291 61 -380 194 -52 79 -66 132 -78 300
-4 62 -9 93 -30 182 -2 8 -15 44 -29 79 -161 402 -601 630 -1016 525z m-93
-1438 c3 -3 6 -96 7 -208 1 -179 4 -206 20 -231 28 -41 63 -63 146 -87 438
-132 842 -438 1102 -835 61 -92 175 -314 203 -395 93 -263 130 -473 129 -735
-1 -174 -19 -317 -60 -479 -19 -75 -55 -187 -64 -201 -4 -5 -10 -23 -14 -39
-4 -16 -29 -75 -56 -131 -291 -613 -877 -1051 -1540 -1150 -177 -27 -498 -27
-616 0 -12 3 -39 7 -60 11 -131 20 -347 92 -504 166 -409 193 -781 564 -965
963 -57 121 -126 310 -139 375 -2 14 -9 45 -15 70 -63 276 -62 571 3 880 27
128 90 304 158 442 43 88 133 246 147 258 3 3 19 24 35 48 41 60 145 181 225
260 221 220 527 403 824 493 87 26 139 64 155 115 5 17 10 89 10 160 1 271 -1
252 25 256 34 5 839 -1 844 -6z"/>
<path d="M1675 3792 c-68 -14 -328 -248 -440 -397 -57 -76 -185 -281 -185
-297 0 -4 -13 -36 -29 -70 -45 -101 -95 -265 -117 -388 -3 -14 -7 -36 -9 -50
-17 -91 -22 -282 -12 -410 24 -289 141 -614 302 -837 54 -76 137 -92 210 -42
81 56 78 132 -9 268 -95 148 -178 375 -203 551 -10 73 -10 340 0 415 48 355
253 716 532 935 22 18 55 44 73 58 43 35 64 76 64 124 -1 89 -88 158 -177 140z"/>
<path d="M6109 5829 c-135 -21 -175 -183 -65 -262 30 -21 39 -22 336 -25 168
-1 324 0 348 3 156 22 168 252 15 281 -45 8 -586 11 -634 3z"/>
<path d="M5890 5402 c-69 -34 -101 -127 -66 -191 11 -19 241 -255 414 -424 27
-27 66 -54 87 -61 105 -36 209 67 181 181 -9 35 -447 479 -493 499 -43 19 -81
18 -123 -4z"/>
</g>
</svg>
